# xmcd CD database file
#
# Track frame offsets:
#	150
#	21351
#	39569
#	54638
#	75100
#	90439
#	105071
#	118934
#	137398
#	157370
#	176127
#	193958
#	211419
#	227341
#	249917
#
# Disc length: 3547 seconds
#
# Revision: 0
# Processed by: cddbd v1.4b42PL1 Copyright (c) Steve Scherf et al.
# Submitted via: Feurio! 1.61 - http://www.feurio.com
#
DISCID=bc0dd90f
DTITLE=Sacco and Mancetti - The best of
DYEAR=1900
DGENRE=
TTITLE0=Rainbow´s end
TTITLE1=The boys got the rhythm
TTITLE2=Careful
TTITLE3=Sleepless nights
TTITLE4=Gooseberry
TTITLE5=The drum of the big indian
TTITLE6=Big potatoe
TTITLE7=Tomorrow
TTITLE8=Why to try
TTITLE9=Little luck
TTITLE10=My love
TTITLE11=By and by
TTITLE12=Coca cola
TTITLE13=Livin´ in a river
TTITLE14=Blue
EXTD=
EXTT0=
EXTT1=
EXTT2=
EXTT3=
EXTT4=
EXTT5=
EXTT6=
EXTT7=
EXTT8=
EXTT9=
EXTT10=
EXTT11=
EXTT12=
EXTT13=
EXTT14=
PLAYORDER=
